<svg width="24" height="24" viewBox="0 0 24 24" fill="none" xmlns="http://www.w3.org/2000/svg">
<g opacity="0.6">
<path d="M12.001 16.5028C12.001 18.1202 10.6912 19.4314 9.07544 19.4314C7.4597 19.4314 6.14988 18.1202 6.14988 16.5028C6.14988 14.8855 7.4597 13.5743 9.07544 13.5743C10.6912 13.5743 12.001 14.8855 12.001 16.5028Z" fill="#99B2AB"/>
<path d="M17.8521 16.5028C17.8521 18.1202 16.5423 19.4314 14.9266 19.4314C13.3108 19.4314 12.001 18.1202 12.001 16.5028C12.001 14.8855 13.3108 13.5743 14.9266 13.5743C16.5423 13.5743 17.8521 14.8855 17.8521 16.5028Z" fill="#99B2AB"/>
<path d="M19.6624 10.9345C19.6624 12.5519 18.3526 13.8631 16.7369 13.8631C15.1211 13.8631 13.8113 12.5519 13.8113 10.9345C13.8113 9.31714 15.1211 8.00599 16.7369 8.00599C18.3526 8.00599 19.6624 9.31714 19.6624 10.9345Z" fill="#99B2AB"/>
<path d="M14.9266 7.49715C14.9266 9.11454 13.6167 10.4257 12.001 10.4257C10.3853 10.4257 9.07544 9.11454 9.07544 7.49715C9.07544 5.87976 10.3853 4.56861 12.001 4.56861C13.6167 4.56861 14.9266 5.87976 14.9266 7.49715Z" fill="#99B2AB"/>
<path d="M10.1907 10.9345C10.1907 12.5519 8.88088 13.8631 7.26514 13.8631C5.6494 13.8631 4.33958 12.5519 4.33958 10.9345C4.33958 9.31714 5.6494 8.00599 7.26514 8.00599C8.88088 8.00599 10.1907 9.31714 10.1907 10.9345Z" fill="#99B2AB"/>
<path d="M14.0503 12.475C14.0503 13.6068 13.1328 14.5243 12.001 14.5243C10.8692 14.5243 9.95171 13.6068 9.95171 12.475C9.95171 11.3432 10.8692 10.4257 12.001 10.4257C13.1328 10.4257 14.0503 11.3432 14.0503 12.475Z" fill="#99B2AB"/>
<path d="M22.9225 12C22.9225 5.96765 18.0324 1.07746 12 1.07746C5.96765 1.07746 1.07746 5.96765 1.07746 12C1.07746 18.0324 5.96765 22.9225 12 22.9225C18.0324 22.9225 22.9225 18.0324 22.9225 12ZM23.52 12C23.52 18.3623 18.3623 23.52 12 23.52C5.63768 23.52 0.48 18.3623 0.48 12C0.48 5.63768 5.63768 0.48 12 0.48C18.3623 0.48 23.52 5.63768 23.52 12Z" fill="#99B2AB"/>
<path d="M22.4428 12C22.4428 6.23274 17.7673 1.55719 12 1.55719C6.23274 1.55719 1.55719 6.23274 1.55719 12C1.55719 17.7673 6.23274 22.4428 12 22.4428C17.7673 22.4428 22.4428 17.7673 22.4428 12ZM24 12C24 18.6274 18.6274 24 12 24C5.37258 24 0 18.6274 0 12C0 5.37258 5.37258 0 12 0C18.6274 0 24 5.37258 24 12Z" fill="#99B2AB"/>
</g>
</svg>
